<?xml version="1.0" encoding="UTF-8" standalone="no"?>
<svg
   id="Ebene_1"
   data-name="Ebene 1"
   viewBox="0 0 191.6 190.85"
   version="1.1"
   sodipodi:docname="swagger_bot.svg"
   inkscape:version="1.3 (0e150ed, 2023-07-21)"
   xmlns:inkscape="http://www.inkscape.org/namespaces/inkscape"
   xmlns:sodipodi="http://sodipodi.sourceforge.net/DTD/sodipodi-0.dtd"
   xmlns="http://www.w3.org/2000/svg"
   xmlns:svg="http://www.w3.org/2000/svg">
  <defs
     id="defs1" />
  <sodipodi:namedview
     id="namedview1"
     pagecolor="#505050"
     bordercolor="#eeeeee"
     borderopacity="1"
     inkscape:showpageshadow="0"
     inkscape:pageopacity="0"
     inkscape:pagecheckerboard="0"
     inkscape:deskcolor="#505050"
     inkscape:zoom="1.2365732"
     inkscape:cx="95.829346"
     inkscape:cy="95.02066"
     inkscape:window-width="1792"
     inkscape:window-height="1092"
     inkscape:window-x="0"
     inkscape:window-y="822"
     inkscape:window-maximized="1"
     inkscape:current-layer="Ebene_1" />
  <path
     d="m 130.23396,170.05878 h 5.3123 V 160.562 l 18.59308,-17.96688 v -23.8703 H 111.6409 v 23.8703 l 18.59306,17.96688 z m -10.62461,10.2668 v -15.40019 l -18.59306,-17.96688 v -28.23369 q 0,-4.23506 3.12098,-7.25092 3.12097,-3.01587 7.50363,-3.01587 h 5.3123 l -5.3123,5.13339 V 87.924439 h 10.62461 v 20.533591 h 21.24922 V 87.924439 h 10.62461 v 25.666981 l -5.31231,-5.13339 h 5.31231 q 4.38264,0 7.50362,3.01587 3.12099,3.01586 3.12099,7.25092 v 28.23369 l -18.59307,17.96688 v 15.40019 z m 13.28076,-35.93378 z"
     id="path1-3"
     style="fill:#ffffff;fill-opacity:1;stroke-width:0.130552" />
  <path
     class="cls-swagger-asset"
     stroke="#4d9685"
     stroke-width="3.67653"
     d="m 70.627779,0.83826494 c -36.829109,0 -66.7895141,28.12120106 -66.7895141,62.68944806 0,34.568232 29.9604051,62.689427 66.7895141,62.689427 36.829091,0 66.789491,-28.121195 66.789491,-62.689427 0,-34.568247 -29.9604,-62.68944806 -66.789491,-62.68944806 z m 0,5.96618066 c 33.375761,0 60.414141,25.3963504 60.414141,56.7054514 0,31.309101 -27.05734,56.705453 -60.414141,56.705453 -33.356814,0 -60.414151,-25.396352 -60.414151,-56.705453 0,-31.326918 27.057337,-56.7054514 60.414151,-56.7054514 z M 50.420149,31.488413 c -0.777946,0 -1.574867,0 -2.352813,0.01775 -5.464595,0.28495 -8.747148,2.707047 -9.657913,7.693693 -0.645126,3.472862 -0.531281,7.034759 -0.79692,10.543238 -0.0759,1.834366 -0.284616,3.63313 -0.645127,5.414079 -0.739997,3.187912 -2.201017,4.167428 -5.654339,4.327712 -0.455382,0.05342 -0.910766,0.124588 -1.366148,0.213716 v 7.640276 c 6.261515,0.28495 7.115359,2.368664 7.627665,8.512941 0.189743,2.243998 -0.0759,4.487995 0.0759,6.731993 0.09488,2.119331 0.398461,4.220846 0.872819,6.268944 1.442045,5.609994 7.267152,7.497792 14.32559,6.357993 v -6.696376 c -1.138464,0 -2.125124,0.01775 -3.111783,0 -2.390764,-0.07117 -3.282562,-0.623333 -3.510252,-2.796097 -0.303591,-2.796081 -0.227689,-5.645611 -0.417428,-8.459508 -0.360518,-5.235995 -0.9677,-10.38294 -6.413311,-13.713319 2.808195,-1.941232 4.838444,-4.238663 5.464586,-7.301893 0.455395,-2.137132 0.740011,-4.292095 0.92975,-6.464844 0.151835,-2.172764 -0.132797,-4.381145 0.07584,-6.536093 0.341543,-3.472847 0.569232,-4.897612 5.009217,-4.755129 0.664109,0 1.309227,-0.08908 2.049221,-0.142498 v -6.838843 c -0.891782,0 -1.726654,-0.01775 -2.523575,-0.03566 v 0 z m 42.274726,0.05342 c -1.51794,-0.03566 -3.035881,0.07117 -4.515887,0.320566 v 6.66076 c 1.366153,0 2.409739,0 3.472301,0.01775 1.821532,0.01775 3.20666,0.676765 3.396399,2.58238 0.170763,1.727531 0.170763,3.490663 0.360502,5.253811 0.360517,3.490663 0.569231,7.034743 1.214365,10.48979 0.569231,2.849529 2.637428,4.968845 5.236905,6.696376 -4.553837,2.86733 -5.882039,6.96351 -6.109728,11.576172 -0.132796,3.15228 -0.208714,6.340192 -0.379477,9.510273 -0.151836,2.902947 -1.233341,3.829046 -4.345124,3.90028 -0.872807,0.01775 -1.726655,0.08908 -2.694339,0.142498 v 6.821043 c 1.821532,0 3.49126,0.106834 5.161004,0 5.17998,-0.284966 8.329714,-2.65363 9.354324,-7.373142 0.4364,-2.600181 0.68307,-5.218179 0.75897,-7.853992 0.17076,-2.404281 0.15183,-4.844179 0.41743,-7.230659 0.37949,-3.739996 2.20102,-5.271612 6.18563,-5.520945 0.37947,-0.03566 0.73999,-0.124588 1.10049,-0.231517 v -7.640275 c -0.66409,-0.07117 -1.13844,-0.142498 -1.6128,-0.160283 -2.97897,-0.124589 -4.47793,-1.068582 -5.21793,-3.70438 -0.45539,-1.691898 -0.73999,-3.43723 -0.85385,-5.182561 -0.20871,-3.22353 -0.18974,-6.48266 -0.41742,-9.72399 -0.43642,-6.233327 -4.421011,-9.15409 -10.511765,-9.33219 v 0 z M 54.347829,59.110936 c -2.599478,0 -4.705626,1.976848 -4.705626,4.398946 0,2.279614 1.840508,4.167428 4.250247,4.398945 h 0.303591 c 2.542551,0.142498 4.724585,-1.691898 4.876388,-4.078379 v -0.231517 c 0.03792,-2.439898 -2.030245,-4.434562 -4.610748,-4.487995 z m 16.204048,0 c -2.485641,-0.07117 -4.553838,1.745331 -4.648699,4.078379 0,0.142498 0,0.267134 0.01904,0.409616 0,2.635814 1.897418,4.309896 4.781512,4.309896 2.884093,0 4.591788,-1.727515 4.591788,-4.452378 -0.01904,-2.635798 -1.897434,-4.363314 -4.762552,-4.345513 v 0 z m 16.488664,0 c -2.618453,-0.03566 -4.800503,1.905615 -4.876404,4.363329 0,2.457714 2.106147,4.434562 4.7246,4.434562 h 0.05696 c 2.371788,0.391816 4.743576,-1.763132 4.895364,-4.327712 0.132796,-2.386465 -2.182034,-4.470179 -4.800487,-4.470179 z"
     id="path1"
     style="fill:#4d9685" />
</svg>
