<?xml version="1.0" encoding="UTF-8" standalone="no"?>
<svg
   id="Ebene_1"
   data-name="Ebene 1"
   viewBox="0 0 191.6 190.85"
   version="1.1"
   sodipodi:docname="swagger_identity.svg"
   inkscape:version="1.3 (0e150ed, 2023-07-21)"
   xmlns:inkscape="http://www.inkscape.org/namespaces/inkscape"
   xmlns:sodipodi="http://sodipodi.sourceforge.net/DTD/sodipodi-0.dtd"
   xmlns="http://www.w3.org/2000/svg"
   xmlns:svg="http://www.w3.org/2000/svg">
  <defs
     id="defs1" />
  <sodipodi:namedview
     id="namedview1"
     pagecolor="#505050"
     bordercolor="#eeeeee"
     borderopacity="1"
     inkscape:showpageshadow="0"
     inkscape:pageopacity="0"
     inkscape:pagecheckerboard="0"
     inkscape:deskcolor="#505050"
     inkscape:zoom="1.2365732"
     inkscape:cx="95.829345"
     inkscape:cy="95.020659"
     inkscape:window-width="1792"
     inkscape:window-height="1092"
     inkscape:window-x="0"
     inkscape:window-y="822"
     inkscape:window-maximized="1"
     inkscape:current-layer="Ebene_1" />
  <g
     id="Ebene_1-2"
     data-name="Ebene 1"
     transform="matrix(2.4280904,0,0,2.0917505,91.874205,84.096185)">
    <g
       id="g11">
      <path
         class="cls-identity"
         d="M 18.91,0 H 18.9 v 3.36 h 0.01 c 0,0 0,43.99 0,43.99 0,0 0,0 -0.01,0 v 3.67 c 0,0 0,0 0.01,0 C 31.57,44.3 40.2,32.94 40.2,22.49 V 6.43 Z"
         id="path1-2"
         style="fill:#ffffff" />
      <g
         id="g10">
        <g
           id="g3">
          <path
             class="cls-identity"
             d="m 18.94,22.7 c -0.59,0 -1.09,0.45 -1.12,1.05 -0.21,4.14 -1.09,8.36 -2.55,12.19 -1.43,3.78 -3.37,7.05 -5.74,9.71 -0.4,0.46 -0.37,1.16 0.1,1.58 0.21,0.19 0.47,0.28 0.73,0.28 0.3,0 0.61,-0.12 0.83,-0.37 2.55,-2.87 4.63,-6.37 6.17,-10.41 0.63,-1.67 1.15,-3.4 1.57,-5.17 V 22.7 Z"
             id="path2"
             style="fill:#ffffff" />
          <path
             class="cls-identity"
             d="m 18.94,48.1 c -0.27,0.44 -0.54,0.87 -0.83,1.29 -0.17,0.25 -0.22,0.54 -0.17,0.83 0.06,0.29 0.22,0.54 0.47,0.71 0.16,0.1 0.34,0.16 0.52,0.18 V 48.1 Z"
             id="path3"
             style="fill:#ffffff" />
        </g>
        <g
           id="g5">
          <path
             class="cls-identity"
             d="m 15.09,28.2 c 0.1,-0.69 0.19,-1.41 0.36,-2.26 0.19,-1.03 0.44,-1.93 0.72,-2.67 0.26,-0.72 0.57,-1.32 0.9,-1.76 0.42,-0.57 1,-0.94 1.65,-1.05 0.07,-0.01 0.14,-0.02 0.22,-0.03 v -2.26 c -0.21,0.01 -0.42,0.03 -0.63,0.07 -1.22,0.22 -2.3,0.91 -3.05,1.94 -0.46,0.62 -0.86,1.4 -1.19,2.3 -0.32,0.87 -0.6,1.88 -0.82,3.03 -0.17,0.87 -0.28,1.65 -0.37,2.38 -0.18,1.34 -0.33,2.52 -0.89,4.12 -0.55,1.59 -1.33,3.34 -2.33,5.22 -1.3,2.47 -2.54,4.27 -3.03,4.89 -0.39,0.47 -0.32,1.18 0.15,1.57 0.24,0.19 0.53,0.28 0.82,0.25 0.29,-0.03 0.57,-0.17 0.75,-0.4 0.69,-0.85 2.05,-2.92 3.28,-5.25 1.04,-1.95 1.87,-3.82 2.47,-5.54 0.62,-1.82 0.8,-3.15 1,-4.55 z"
             id="path4"
             style="fill:#ffffff" />
          <path
             class="cls-identity"
             d="m 18.94,37.15 c -1.78,4.55 -3.93,8.94 -5.22,10.57 -0.37,0.49 -0.29,1.18 0.19,1.57 0.21,0.15 0.44,0.24 0.68,0.24 0.33,0 0.67,-0.15 0.87,-0.43 0.92,-1.18 2.19,-3.49 3.47,-6.28 v -5.66 z"
             id="path5"
             style="fill:#ffffff" />
        </g>
        <path
           class="cls-identity"
           d="m 18.94,13.79 c -0.94,0.02 -1.88,0.15 -2.75,0.43 -1.61,0.51 -3.01,1.43 -4.17,2.72 -1.54,1.72 -2.56,4.02 -3.03,6.86 -0.01,0.06 -0.01,0.11 -0.03,0.15 v 0.04 c -0.24,2.66 -0.97,6.21 -1.91,9.24 -0.87,2.8 -1.77,4.74 -2.47,5.32 -0.22,0.19 -0.37,0.46 -0.4,0.76 -0.03,0.29 0.07,0.58 0.25,0.82 0.19,0.22 0.46,0.37 0.76,0.4 0.29,0.03 0.58,-0.07 0.82,-0.25 1.4,-1.16 2.59,-4.49 3.17,-6.37 1,-3.2 1.76,-6.93 2.01,-9.73 0.4,-2.41 1.25,-4.34 2.49,-5.74 0.89,-1 1.95,-1.69 3.19,-2.08 0.66,-0.21 1.36,-0.32 2.07,-0.33 v -2.25 z"
           id="path6"
           style="fill:#ffffff" />
        <path
           class="cls-identity"
           d="m 18.94,9.44 c -1.81,-0.02 -3.57,0.33 -5.25,1.05 -1.98,0.86 -3.81,2.24 -5.28,4 -2.02,2.42 -3.35,5.56 -3.76,8.81 -0.29,2.31 -0.65,4.28 -1.08,5.83 -0.55,2.01 -1.21,3.34 -1.91,3.94 -0.22,0.19 -0.37,0.46 -0.4,0.76 -0.03,0.29 0.07,0.58 0.25,0.82 0.21,0.25 0.53,0.4 0.86,0.4 0.25,0 0.51,-0.08 0.72,-0.26 C 4.16,33.9 5.04,32.2 5.72,29.73 6.18,28.05 6.57,25.97 6.87,23.56 7.23,20.72 8.38,18 10.13,15.9 c 1.25,-1.5 2.79,-2.66 4.45,-3.38 1.39,-0.6 2.85,-0.88 4.36,-0.86 V 9.43 Z"
           id="path7"
           style="fill:#ffffff" />
        <g
           id="g9">
          <path
             class="cls-identity"
             d="M 10.59,7.09 C 10.2,7.21 1.13,10.36 0,23.48 c -0.03,0.29 0.07,0.58 0.26,0.82 0.19,0.22 0.46,0.36 0.76,0.39 h 0.1 c 0.26,0 0.51,-0.1 0.72,-0.26 C 2.06,24.24 2.2,23.96 2.23,23.67 3.23,12 10.97,9.31 11.31,9.2 11.59,9.1 11.82,8.91 11.95,8.65 12.09,8.39 12.1,8.08 12.01,7.8 11.82,7.22 11.18,6.9 10.6,7.09 Z"
             id="path8"
             style="fill:#ffffff" />
          <path
             class="cls-identity"
             d="m 18.94,5.17 c -2.46,0.02 -4.2,0.43 -4.35,0.47 -0.6,0.14 -0.97,0.75 -0.82,1.34 0.14,0.6 0.75,0.97 1.34,0.82 0.13,-0.03 1.66,-0.39 3.82,-0.41 V 5.17 Z"
             id="path9"
             style="fill:#ffffff" />
        </g>
        <path
           class="cls-identity"
           d="M 18.94,0.08 C 16.86,0.12 14.76,0.48 12.65,1.17 6.63,3.12 2.61,7.07 2.44,7.24 2.23,7.45 2.11,7.73 2.11,8.03 c 0,0.3 0.11,0.58 0.32,0.79 0.21,0.18 0.48,0.3 0.79,0.3 0.31,0 0.58,-0.11 0.79,-0.32 0.15,-0.15 3.8,-3.73 9.27,-5.5 1.92,-0.63 3.8,-0.95 5.66,-1 V 0.08 Z"
           id="path10"
           style="fill:#ffffff" />
      </g>
    </g>
  </g>
  <path
     class="cls-swagger-asset"
     stroke="#4d9685"
     stroke-width="3.67653"
     d="m 70.627779,0.83826494 c -36.829109,0 -66.7895141,28.12120106 -66.7895141,62.68944806 0,34.568232 29.9604051,62.689427 66.7895141,62.689427 36.829091,0 66.789491,-28.121195 66.789491,-62.689427 0,-34.568247 -29.9604,-62.68944806 -66.789491,-62.68944806 z m 0,5.96618066 c 33.375761,0 60.414141,25.3963504 60.414141,56.7054514 0,31.309101 -27.05734,56.705453 -60.414141,56.705453 -33.356814,0 -60.414151,-25.396352 -60.414151,-56.705453 0,-31.326918 27.057337,-56.7054514 60.414151,-56.7054514 z M 50.420149,31.488413 c -0.777946,0 -1.574867,0 -2.352813,0.01775 -5.464595,0.28495 -8.747148,2.707047 -9.657913,7.693693 -0.645126,3.472862 -0.531281,7.034759 -0.79692,10.543238 -0.0759,1.834366 -0.284616,3.63313 -0.645127,5.414079 -0.739997,3.187912 -2.201017,4.167428 -5.654339,4.327712 -0.455382,0.05342 -0.910766,0.124588 -1.366148,0.213716 v 7.640276 c 6.261515,0.28495 7.115359,2.368664 7.627665,8.512941 0.189743,2.243998 -0.0759,4.487995 0.0759,6.731993 0.09488,2.119331 0.398461,4.220846 0.872819,6.268944 1.442045,5.609994 7.267152,7.497792 14.32559,6.357993 v -6.696376 c -1.138464,0 -2.125124,0.01775 -3.111783,0 -2.390764,-0.07117 -3.282562,-0.623333 -3.510252,-2.796097 -0.303591,-2.796081 -0.227689,-5.645611 -0.417428,-8.459508 -0.360518,-5.235995 -0.9677,-10.38294 -6.413311,-13.713319 2.808195,-1.941232 4.838444,-4.238663 5.464586,-7.301893 0.455395,-2.137132 0.740011,-4.292095 0.92975,-6.464844 0.151835,-2.172764 -0.132797,-4.381145 0.07584,-6.536093 0.341543,-3.472847 0.569232,-4.897612 5.009217,-4.755129 0.664109,0 1.309227,-0.08908 2.049221,-0.142498 v -6.838843 c -0.891782,0 -1.726654,-0.01775 -2.523575,-0.03566 v 0 z m 42.274726,0.05342 c -1.51794,-0.03566 -3.035881,0.07117 -4.515887,0.320566 v 6.66076 c 1.366153,0 2.409739,0 3.472301,0.01775 1.821532,0.01775 3.20666,0.676765 3.396399,2.58238 0.170763,1.727531 0.170763,3.490663 0.360502,5.253811 0.360517,3.490663 0.569231,7.034743 1.214365,10.48979 0.569231,2.849529 2.637428,4.968845 5.236905,6.696376 -4.553837,2.86733 -5.882039,6.96351 -6.109728,11.576172 -0.132796,3.15228 -0.208714,6.340192 -0.379477,9.510273 -0.151836,2.902947 -1.233341,3.829046 -4.345124,3.90028 -0.872807,0.01775 -1.726655,0.08908 -2.694339,0.142498 v 6.821043 c 1.821532,0 3.49126,0.106834 5.161004,0 5.17998,-0.284966 8.329714,-2.65363 9.354324,-7.373142 0.4364,-2.600181 0.68307,-5.218179 0.75897,-7.853992 0.17076,-2.404281 0.15183,-4.844179 0.41743,-7.230659 0.37949,-3.739996 2.20102,-5.271612 6.18563,-5.520945 0.37947,-0.03566 0.73999,-0.124588 1.10049,-0.231517 v -7.640275 c -0.66409,-0.07117 -1.13844,-0.142498 -1.6128,-0.160283 -2.97897,-0.124589 -4.47793,-1.068582 -5.21793,-3.70438 -0.45539,-1.691898 -0.73999,-3.43723 -0.85385,-5.182561 -0.20871,-3.22353 -0.18974,-6.48266 -0.41742,-9.72399 -0.43642,-6.233327 -4.421011,-9.15409 -10.511765,-9.33219 v 0 z M 54.347829,59.110936 c -2.599478,0 -4.705626,1.976848 -4.705626,4.398946 0,2.279614 1.840508,4.167428 4.250247,4.398945 h 0.303591 c 2.542551,0.142498 4.724585,-1.691898 4.876388,-4.078379 v -0.231517 c 0.03792,-2.439898 -2.030245,-4.434562 -4.610748,-4.487995 z m 16.204048,0 c -2.485641,-0.07117 -4.553838,1.745331 -4.648699,4.078379 0,0.142498 0,0.267134 0.01904,0.409616 0,2.635814 1.897418,4.309896 4.781512,4.309896 2.884093,0 4.591788,-1.727515 4.591788,-4.452378 -0.01904,-2.635798 -1.897434,-4.363314 -4.762552,-4.345513 v 0 z m 16.488664,0 c -2.618453,-0.03566 -4.800503,1.905615 -4.876404,4.363329 0,2.457714 2.106147,4.434562 4.7246,4.434562 h 0.05696 c 2.371788,0.391816 4.743576,-1.763132 4.895364,-4.327712 0.132796,-2.386465 -2.182034,-4.470179 -4.800487,-4.470179 z"
     id="path1"
     style="fill:#4d9685" />
</svg>
