<?xml version="1.0" encoding="UTF-8" standalone="no"?>
<svg
  height="24px"
  viewBox="0 -960 960 960"
  width="24px"
  id="svg1"
  xmlns="http://www.w3.org/2000/svg">
  <path
    d="m 480,-800 -237,137 237,137 237,-137 z m -360,479 v -318 c 0,-14.66667 3.5,-28 10.5,-40 7,-12 16.83333,-21.66667 29.5,-29 l 280,-161 c 6.66667,-3.33333 13.16667,-6 19.5,-8 6.33333,-2 13.16667,-3 20.5,-3 7.33333,0 14.33333,1 21,3 6.66667,2 13,4.66667 19,8 l 280,161 c 12.66667,7.33333 22.5,17 29.5,29 7,12 10.5,25.33333 10.5,40 v 159 H 760 V -596 L 479,-434 200,-596 v 274 l 240,139 v 92 L 160,-252 c -12.66667,-7.33333 -22.5,-17 -29.5,-29 -7,-12 -10.5,-25.33333 -10.5,-40 z"
    id="path1" />
  <path
    d="m 616.45399,-142.81244 72,-72 72,72 28,-28 -72,-72 72,-72 -28,-28 -72,72 -72,-72 -28,28 72,72 -72,72 z m 72,99.999997 q -41.5,0 -78,-15.75 -36.5,-15.75 -63.5,-42.749997 -27,-27 -42.75,-63.5 -15.75,-36.5 -15.75,-78 0,-41.5 15.75,-78 15.75,-36.5 42.75,-63.5 27,-27 63.5,-42.75 36.5,-15.75 78,-15.75 41.5,0 78,15.75 36.5,15.75 63.5,42.75 27,27 42.75,63.5 15.75,36.5 15.75,78 0,41.5 -15.75,78 -15.75,36.5 -42.75,63.5 -27,26.999997 -63.5,42.749997 -36.5,15.75 -78,15.75 z m 0,-40 q 67,0 113.5,-46.499997 46.5,-46.5 46.5,-113.5 0,-67 -46.5,-113.5 -46.5,-46.5 -113.5,-46.5 -67,0 -113.5,46.5 -46.5,46.5 -46.5,113.5 0,67 46.5,113.5 46.5,46.499997 113.5,46.499997 z m 0,-159.999997 z"
    id="path1-0" />
</svg>
